<svg width="44" height="44" viewBox="0 0 44 44" fill="none" xmlns="http://www.w3.org/2000/svg">
<rect width="44" height="44" rx="22" fill="#EEEEEE"/>
<path d="M22.2379 10.3334H21.7622L21.5657 10.337C18.884 10.4424 16.7643 12.6533 16.7644 15.3448V18.1574L16.7707 18.4049V18.4049C16.8332 19.7237 17.3926 20.9696 18.3358 21.8907L19.5895 23.1157L19.6703 23.2048C19.8229 23.3911 19.9063 23.6251 19.9063 23.8681V24.0391L19.8982 24.1624C19.8574 24.4922 19.6565 24.7804 19.3616 24.932L11.474 28.9767L11.3376 29.0532C10.7143 29.4342 10.3338 30.1132 10.3334 30.8452V31.1962L10.3388 31.3312C10.407 32.1718 11.1088 32.8334 11.9649 32.8334H32.0352C32.9359 32.8334 33.6662 32.1013 33.6667 31.198V30.847C33.6667 30.0577 33.227 29.3349 32.5261 28.9767L24.6385 24.932C24.3038 24.7604 24.0934 24.4151 24.0938 24.0382V23.8672C24.0938 23.5846 24.2086 23.3137 24.4105 23.1157L25.6643 21.8907C26.6685 20.9097 27.2349 19.5634 27.2348 18.1574V15.3448V15.3448C27.2348 12.5771 24.9976 10.3334 22.2379 10.3334Z" fill="#CCCCCC"/>
</svg>
